<svg width="20" height="25" viewBox="0 0 20 25" fill="none" xmlns="http://www.w3.org/2000/svg">
<path d="M10 0.5C5 0.5 0 1.125 0 5.5V17.375C0 18.5353 0.460936 19.6481 1.28141 20.4686C2.10188 21.2891 3.21468 21.75 4.375 21.75L2.5 23.625V24.25H5.2875L7.7875 21.75H12.5L15 24.25H17.5V23.625L15.625 21.75C16.7853 21.75 17.8981 21.2891 18.7186 20.4686C19.5391 19.6481 20 18.5353 20 17.375V5.5C20 1.125 15.525 0.5 10 0.5ZM4.375 19.25C3.87772 19.25 3.40081 19.0525 3.04917 18.7008C2.69754 18.3492 2.5 17.8723 2.5 17.375C2.5 16.8777 2.69754 16.4008 3.04917 16.0492C3.40081 15.6975 3.87772 15.5 4.375 15.5C4.87228 15.5 5.34919 15.6975 5.70083 16.0492C6.05246 16.4008 6.25 16.8777 6.25 17.375C6.25 17.8723 6.05246 18.3492 5.70083 18.7008C5.34919 19.0525 4.87228 19.25 4.375 19.25ZM8.75 10.5H2.5V5.5H8.75V10.5ZM11.25 10.5V5.5H17.5V10.5H11.25ZM15.625 19.25C15.1277 19.25 14.6508 19.0525 14.2992 18.7008C13.9475 18.3492 13.75 17.8723 13.75 17.375C13.75 16.8777 13.9475 16.4008 14.2992 16.0492C14.6508 15.6975 15.1277 15.5 15.625 15.5C16.1223 15.5 16.5992 15.6975 16.9508 16.0492C17.3025 16.4008 17.5 16.8777 17.5 17.375C17.5 17.8723 17.3025 18.3492 16.9508 18.7008C16.5992 19.0525 16.1223 19.25 15.625 19.25Z" fill="white"/>
</svg>
