<svg width="30" height="26" viewBox="0 0 30 26" fill="none" xmlns="http://www.w3.org/2000/svg">
<path d="M23.8898 10.1875C23.7305 10.1875 23.0437 10.1922 22.7959 10.2057L19.4109 10.2947L11.6051 0.8125H7.9248L12.2953 10.4576L6.59355 10.542L3.99902 7.375H0.945697L2.15331 12.8934C2.1621 12.925 2.17265 12.9561 2.18437 12.9865C2.18523 12.9894 2.18523 12.9924 2.18437 12.9953C2.17231 13.0256 2.16194 13.0565 2.15331 13.0879L0.929291 18.625H3.96328L6.62636 15.4023L12.2965 15.5295L7.92421 25.1875H11.6156L19.4086 15.71L22.7936 15.8002C23.0449 15.8137 23.7311 15.8184 23.8869 15.8184C25.3137 15.8184 26.4809 15.6227 27.3562 15.2359C28.841 14.582 29.0625 13.5543 29.0625 13C29.0625 11.2387 27.1289 10.1875 23.8898 10.1875Z" fill="white"/>
</svg>
