<svg width="25" height="24" viewBox="0 0 25 24" fill="none" xmlns="http://www.w3.org/2000/svg">
<path d="M15.1825 3.95005V7.75005H13.6825V3.95005C13.6825 3.68005 13.4425 3.55005 13.2825 3.55005C13.2325 3.55005 13.1825 3.56005 13.1325 3.58005L5.20252 6.57005C4.67252 6.77005 4.33252 7.27005 4.33252 7.84005V8.51005C3.42252 9.19005 2.83252 10.28 2.83252 11.51V7.84005C2.83252 6.65005 3.56252 5.59005 4.67252 5.17005L12.6125 2.17005C12.8325 2.09005 13.0625 2.05005 13.2825 2.05005C14.2825 2.05005 15.1825 2.86005 15.1825 3.95005Z" fill="#060962"/>
<path d="M21.8326 14.5V15.5C21.8326 15.77 21.6226 15.99 21.3426 16H19.8826C19.3526 16 18.8726 15.61 18.8326 15.09C18.8026 14.78 18.9226 14.49 19.1226 14.29C19.3026 14.1 19.5526 14 19.8226 14H21.3326C21.6226 14.01 21.8326 14.23 21.8326 14.5Z" fill="#060962"/>
<path d="M19.8125 12.95H20.8325C21.3825 12.95 21.8325 12.5 21.8325 11.95V11.51C21.8325 9.44 20.1425 7.75 18.0725 7.75H6.59252C5.74252 7.75 4.96252 8.03 4.33252 8.51C3.42252 9.19 2.83252 10.28 2.83252 11.51V18.24C2.83252 20.31 4.52252 22 6.59252 22H18.0725C20.1425 22 21.8325 20.31 21.8325 18.24V18.05C21.8325 17.5 21.3825 17.05 20.8325 17.05H19.9625C19.0025 17.05 18.0825 16.46 17.8325 15.53C17.6225 14.77 17.8725 14.04 18.3725 13.55C18.7425 13.17 19.2525 12.95 19.8125 12.95ZM14.3325 12.75H7.33252C6.92252 12.75 6.58252 12.41 6.58252 12C6.58252 11.59 6.92252 11.25 7.33252 11.25H14.3325C14.7425 11.25 15.0825 11.59 15.0825 12C15.0825 12.41 14.7425 12.75 14.3325 12.75Z" fill="#060962"/>
</svg>
