<svg width="21" height="20" viewBox="0 0 21 20" fill="none" xmlns="http://www.w3.org/2000/svg">
<path d="M18.9401 4.82L13.1801 0.789999C11.6101 -0.310001 9.20014 -0.250001 7.69014 0.919999L2.68014 4.83C1.68014 5.61 0.890137 7.21 0.890137 8.47V15.37C0.890137 17.92 2.96014 20 5.51014 20H16.2901C18.8401 20 20.9101 17.93 20.9101 15.38V8.6C20.9101 7.25 20.0401 5.59 18.9401 4.82ZM11.6501 16C11.6501 16.41 11.3101 16.75 10.9001 16.75C10.4901 16.75 10.1501 16.41 10.1501 16V13C10.1501 12.59 10.4901 12.25 10.9001 12.25C11.3101 12.25 11.6501 12.59 11.6501 13V16Z" fill="#060962"/>
</svg>
