<svg width="20" height="26" viewBox="0 0 20 26" fill="none" xmlns="http://www.w3.org/2000/svg">
<path d="M19.3735 9.0945C17.7349 10.107 16.7229 11.8428 16.7229 13.7715C16.7229 15.9412 18.0241 17.918 20 18.7377C19.6145 19.9913 19.0361 21.1485 18.3133 22.2093C17.253 23.704 16.1446 25.2469 14.506 25.2469C12.8675 25.2469 12.3855 24.2825 10.4578 24.2825C8.57831 24.2825 7.90361 25.2951 6.36145 25.2951C4.81928 25.2951 3.75904 23.8968 2.55422 22.161C0.963856 19.7502 0.0481928 16.9537 0 14.0125C0 9.23915 3.08434 6.6837 6.16867 6.6837C7.80723 6.6837 9.15663 7.74446 10.1687 7.74446C11.1325 7.74446 12.6747 6.63549 14.506 6.63549C16.4337 6.58727 18.2651 7.50338 19.3735 9.0945ZM13.6386 4.61041C14.4578 3.64609 14.8916 2.44069 14.9398 1.18708C14.9398 1.04243 14.9398 0.849566 14.8916 0.704918C13.494 0.849566 12.1928 1.52459 11.2771 2.58534C10.4578 3.50145 9.9759 4.65863 9.92771 5.91225C9.92771 6.0569 9.92771 6.20154 9.9759 6.34619C10.0723 6.34619 10.2169 6.39441 10.3133 6.39441C11.6145 6.29798 12.8193 5.62295 13.6386 4.61041Z" fill="black"/>
</svg>
