<svg width="20" height="20" viewBox="0 0 20 20" fill="none" xmlns="http://www.w3.org/2000/svg">
<path fill-rule="evenodd" clip-rule="evenodd" d="M14.1278 3.10695V1.77112C14.1278 1.42612 13.8478 1.14612 13.5028 1.14612C13.1578 1.14612 12.8778 1.42612 12.8778 1.77112V4.49028C12.8778 4.70695 12.9953 4.88945 13.1637 5.00112C13.0645 5.06778 12.952 5.11528 12.8237 5.11528C12.4787 5.11528 12.1987 4.83528 12.1987 4.49028V2.68528C11.5303 2.60528 10.802 2.56445 9.99949 2.56445C9.05449 2.56445 8.21199 2.62112 7.45449 2.73528V1.77112C7.45449 1.42612 7.17449 1.14612 6.82949 1.14612C6.48449 1.14612 6.20449 1.42612 6.20449 1.77112V4.49028C6.20449 4.70695 6.32199 4.88945 6.49033 5.00112C6.39116 5.06778 6.27866 5.11528 6.15033 5.11528C5.80533 5.11528 5.52533 4.83528 5.52533 4.49028V3.21528C3.74699 3.90112 2.70366 5.17695 2.21033 7.20862H17.7895C17.2662 5.05362 16.1095 3.76028 14.1278 3.10695Z" fill="#A8A8A8"/>
<path fill-rule="evenodd" clip-rule="evenodd" d="M13.677 11.7389C13.332 11.7389 13.0487 11.4589 13.0487 11.1139C13.0487 10.7689 13.3245 10.4889 13.6695 10.4889H13.677C14.022 10.4889 14.302 10.7689 14.302 11.1139C14.302 11.4589 14.022 11.7389 13.677 11.7389ZM13.677 14.9497C13.332 14.9497 13.0487 14.6697 13.0487 14.3247C13.0487 13.9789 13.3245 13.6997 13.6695 13.6997H13.677C14.022 13.6997 14.302 13.9789 14.302 14.3247C14.302 14.6697 14.022 14.9497 13.677 14.9497ZM10.0112 11.7389C9.66616 11.7389 9.38199 11.4589 9.38199 11.1139C9.38199 10.7689 9.65866 10.4889 10.0037 10.4889H10.0112C10.3562 10.4889 10.6362 10.7689 10.6362 11.1139C10.6362 11.4589 10.3562 11.7389 10.0112 11.7389ZM10.0112 14.9497C9.66616 14.9497 9.38199 14.6697 9.38199 14.3247C9.38199 13.9789 9.65866 13.6997 10.0037 13.6997H10.0112C10.3562 13.6997 10.6362 13.9789 10.6362 14.3247C10.6362 14.6697 10.3562 14.9497 10.0112 14.9497ZM6.33783 11.7389C5.99283 11.7389 5.70866 11.4589 5.70866 11.1139C5.70866 10.7689 5.98533 10.4889 6.33033 10.4889H6.33783C6.68283 10.4889 6.96283 10.7689 6.96283 11.1139C6.96283 11.4589 6.68283 11.7389 6.33783 11.7389ZM6.33783 14.9497C5.99283 14.9497 5.70866 14.6697 5.70866 14.3247C5.70866 13.9789 5.98533 13.6997 6.33033 13.6997H6.33783C6.68283 13.6997 6.96283 13.9789 6.96283 14.3247C6.96283 14.6697 6.68283 14.9497 6.33783 14.9497ZM18.0162 8.45808H1.98366C1.89866 9.14141 1.85449 9.88558 1.85449 10.7097C1.85449 16.7222 3.98616 18.8539 9.99949 18.8539C16.0137 18.8539 18.1453 16.7222 18.1453 10.7097C18.1453 9.88558 18.1012 9.14141 18.0162 8.45808Z" fill="#A8A8A8"/>
</svg>
