<svg width="13" height="11" viewBox="0 0 13 11" fill="none" xmlns="http://www.w3.org/2000/svg">
<path d="M11.4457 1.8087H10.0891L9.34022 0.678261C9.05761 0.254348 8.56304 0 8.05435 0H4.94565C4.43696 0 3.94239 0.254348 3.65978 0.678261L2.91087 1.8087H1.55435C0.692391 1.8087 0 2.50109 0 3.36304V8.84565C0 9.70761 0.692391 10.4 1.55435 10.4H11.4457C12.3076 10.4 13 9.70761 13 8.84565V3.36304C13 2.50109 12.3076 1.8087 11.4457 1.8087ZM6.5 9.12826C4.56413 9.12826 2.99565 7.55978 2.99565 5.62391C2.99565 3.68804 4.56413 2.1337 6.5 2.1337C8.43587 2.1337 10.0043 3.70217 10.0043 5.63804C10.0043 7.55978 8.43587 9.12826 6.5 9.12826ZM11.2478 3.99891C11.2337 3.99891 11.2196 3.99891 11.1913 3.99891H10.6261C10.3717 3.98478 10.1739 3.77283 10.188 3.51848C10.2022 3.27826 10.3859 3.09456 10.6261 3.08043H11.1913C11.4457 3.0663 11.6576 3.26413 11.6717 3.51848C11.6859 3.77283 11.5022 3.98478 11.2478 3.99891Z" fill="white"/>
<path d="M6.4998 3.68799C5.42589 3.68799 4.5498 4.56408 4.5498 5.63799C4.5498 6.7119 5.42589 7.57386 6.4998 7.57386C7.57371 7.57386 8.4498 6.69777 8.4498 5.62386C8.4498 4.54995 7.57371 3.68799 6.4998 3.68799Z" fill="white"/>
</svg>
