<svg width="42" height="42" viewBox="0 0 42 42" fill="none" xmlns="http://www.w3.org/2000/svg">
<path d="M21 0.6875C9.78223 0.6875 0.6875 9.78223 0.6875 21C0.6875 32.2178 9.78223 41.3125 21 41.3125C32.2178 41.3125 41.3125 32.2178 41.3125 21C41.3125 9.78223 32.2178 0.6875 21 0.6875ZM30.375 24.125H21C20.5856 24.125 20.1882 23.9604 19.8951 23.6674C19.6021 23.3743 19.4375 22.9769 19.4375 22.5625V8.5C19.4375 8.0856 19.6021 7.68817 19.8951 7.39515C20.1882 7.10212 20.5856 6.9375 21 6.9375C21.4144 6.9375 21.8118 7.10212 22.1049 7.39515C22.3979 7.68817 22.5625 8.0856 22.5625 8.5V21H30.375C30.7894 21 31.1868 21.1646 31.4799 21.4576C31.7729 21.7507 31.9375 22.1481 31.9375 22.5625C31.9375 22.9769 31.7729 23.3743 31.4799 23.6674C31.1868 23.9604 30.7894 24.125 30.375 24.125Z" fill="#FA6900"/>
</svg>
