<svg width="20" height="16" viewBox="0 0 20 16" fill="none" xmlns="http://www.w3.org/2000/svg">
<path d="M0.00999999 2.8735C0.0732 2.09076 0.428782 1.3605 1.00599 0.828047C1.5832 0.29559 2.33971 -3.43739e-05 3.125 2.99783e-09H16.875C17.6673 -3.33362e-05 18.43 0.300882 19.0089 0.841865C19.5877 1.38285 19.9395 2.12351 19.993 2.914L10.001 8.175L0.00999999 2.8735ZM0 4.2835V12.875C0 13.7038 0.32924 14.4987 0.915291 15.0847C1.50134 15.6708 2.2962 16 3.125 16H16.875C17.7038 16 18.4987 15.6708 19.0847 15.0847C19.6708 14.4987 20 13.7038 20 12.875V4.323L10.291 9.435C10.2009 9.4824 10.1007 9.50708 9.99888 9.50691C9.8971 9.50673 9.7969 9.4817 9.707 9.434L0 4.2835Z" fill="white"/>
</svg>
