<svg width="20" height="12" viewBox="0 0 20 12" fill="none" xmlns="http://www.w3.org/2000/svg">
<path d="M10 0.400024C3.439 0.400024 0 5.23202 0 6.00002C0 6.76602 3.439 11.6 10 11.6C16.56 11.6 20 6.76602 20 6.00002C20 5.23202 16.56 0.400024 10 0.400024ZM10 10.307C7.545 10.307 5.555 8.37902 5.555 6.00002C5.555 3.62102 7.545 1.69102 10 1.69102C12.455 1.69102 14.444 3.62102 14.444 6.00002C14.444 8.37902 12.455 10.307 10 10.307ZM10 6.00002C9.593 5.55302 10.663 3.84602 10 3.84602C8.772 3.84602 7.777 4.81102 7.777 6.00002C7.777 7.18902 8.772 8.15402 10 8.15402C11.228 8.15402 12.223 7.18902 12.223 6.00002C12.223 5.45302 10.346 6.37902 10 6.00002Z" fill="white"/>
</svg>
