<svg width="25" height="24" viewBox="0 0 25 24" fill="none" xmlns="http://www.w3.org/2000/svg">
<path d="M12.8399 7.62H7.5699C5.7099 7.62 5.28991 8.55001 5.05991 9.70001L4.2099 13.75H16.2099L15.3599 9.70001C15.1099 8.55001 14.6999 7.62 12.8399 7.62Z" fill="#FA6900" stroke="#F1F1F1" stroke-width="1.5" stroke-linecap="round" stroke-linejoin="round"/>
<path d="M17.6899 20.36C17.7699 21.24 17.0699 22 16.1699 22H14.7599C13.9499 22 13.8399 21.65 13.6899 21.23L13.5399 20.78C13.3299 20.17 13.1899 19.75 12.1099 19.75H8.26991C7.18991 19.75 7.02991 20.22 6.83991 20.78L6.68991 21.23C6.54991 21.66 6.4399 22 5.6199 22H4.2099C3.3099 22 2.59991 21.24 2.68991 20.36L3.10991 15.79C3.21991 14.66 3.4299 13.74 5.3999 13.74H14.9699C16.9399 13.74 17.1499 14.66 17.2599 15.79L17.6899 20.36Z" fill="#FA6900" stroke="#F1F1F1" stroke-width="1.5" stroke-linecap="round" stroke-linejoin="round"/>
<path d="M4.19991 11.5H3.44991" stroke="#F1F1F1" stroke-width="1.5" stroke-linecap="round" stroke-linejoin="round"/>
<path d="M16.9499 11.5H16.1999" stroke="#F1F1F1" stroke-width="1.5" stroke-linecap="round" stroke-linejoin="round"/>
<path d="M5.69991 16.75H7.94991" stroke="#F1F1F1" stroke-width="1.5" stroke-linecap="round" stroke-linejoin="round"/>
<path d="M12.4499 16.75H14.6999" stroke="#F1F1F1" stroke-width="1.5" stroke-linecap="round" stroke-linejoin="round"/>
<path d="M19.4099 8.73998C19.6899 8.08998 19.5899 7.20999 19.0699 6.43999C18.5599 5.66999 17.7799 5.23999 17.0699 5.24999" stroke="#FA6900" stroke-width="1.5" stroke-linecap="round" stroke-linejoin="round"/>
<path d="M22.5199 9.72998C22.9399 8.21998 22.6399 6.37002 21.5699 4.77002C20.4999 3.17002 18.8999 2.19 17.3399 2" stroke="#FA6900" stroke-width="1.5" stroke-linecap="round" stroke-linejoin="round"/>
</svg>
