<svg width="20" height="20" viewBox="0 0 20 20" fill="none" xmlns="http://www.w3.org/2000/svg">
<path d="M19.0819 13.0822C18.4762 15.0594 17.2624 16.7952 15.6132 18.0426C14.1652 19.1324 12.4421 19.797 10.6373 19.962C8.83256 20.1269 7.01754 19.7855 5.396 18.9762C3.77446 18.1669 2.41057 16.9217 1.45743 15.3803C0.504282 13.8389 -0.00039398 12.0623 4.49173e-05 10.2501C-0.00640179 8.13474 0.681256 6.07572 1.95754 4.3888C3.20492 2.73955 4.9407 1.52572 6.91786 0.920052C7.04817 0.879927 7.18695 0.876085 7.31928 0.908938C7.45161 0.941792 7.57248 1.0101 7.6689 1.10651C7.76531 1.20292 7.83362 1.3238 7.86647 1.45613C7.89932 1.58846 7.89548 1.72724 7.85536 1.85755C7.42302 3.28764 7.38677 4.80823 7.75047 6.2573C8.11417 7.70637 8.8642 9.02961 9.92062 10.086C10.977 11.1425 12.3003 11.8925 13.7494 12.2562C15.1984 12.6199 16.719 12.5836 18.1491 12.1513C18.2794 12.1112 18.4182 12.1073 18.5505 12.1402C18.6829 12.173 18.8037 12.2413 18.9001 12.3378C18.9966 12.4342 19.0649 12.555 19.0977 12.6874C19.1306 12.8197 19.1267 12.9585 19.0866 13.0888L19.0819 13.0822Z" fill="white"/>
</svg>
