<svg width="25" height="24" viewBox="0 0 25 24" fill="none" xmlns="http://www.w3.org/2000/svg">
<path d="M18.0725 22.75H6.59252C4.10252 22.75 2.08252 20.73 2.08252 18.24V11.51C2.08252 9.02001 4.10252 7 6.59252 7H18.0725C20.5625 7 22.5825 9.02001 22.5825 11.51V12.95C22.5825 13.36 22.2425 13.7 21.8325 13.7H19.8125C19.4625 13.7 19.1425 13.83 18.9125 14.07L18.9025 14.08C18.6225 14.35 18.4925 14.72 18.5225 15.1C18.5825 15.76 19.2125 16.29 19.9325 16.29H21.8325C22.2425 16.29 22.5825 16.63 22.5825 17.04V18.23C22.5825 20.73 20.5625 22.75 18.0725 22.75ZM6.59252 8.5C4.93252 8.5 3.58252 9.85001 3.58252 11.51V18.24C3.58252 19.9 4.93252 21.25 6.59252 21.25H18.0725C19.7325 21.25 21.0825 19.9 21.0825 18.24V17.8H19.9325C18.4225 17.8 17.1425 16.68 17.0225 15.24C16.9425 14.42 17.2425 13.61 17.8425 13.02C18.3625 12.49 19.0625 12.2 19.8125 12.2H21.0825V11.51C21.0825 9.85001 19.7325 8.5 18.0725 8.5H6.59252Z" fill="#F1F1F1"/>
<path d="M2.83252 13.16C2.42252 13.16 2.08252 12.82 2.08252 12.41V7.84006C2.08252 6.35006 3.02252 5.00001 4.41252 4.47001L12.3525 1.47001C13.1725 1.16001 14.0825 1.27005 14.7925 1.77005C15.5125 2.27005 15.9325 3.08005 15.9325 3.95005V7.75003C15.9325 8.16003 15.5925 8.50003 15.1825 8.50003C14.7725 8.50003 14.4325 8.16003 14.4325 7.75003V3.95005C14.4325 3.57005 14.2525 3.22003 13.9325 3.00003C13.6125 2.78003 13.2325 2.73003 12.8725 2.87003L4.93252 5.87003C4.12252 6.18003 3.57252 6.97006 3.57252 7.84006V12.41C3.58252 12.83 3.24252 13.16 2.83252 13.16Z" fill="#F1F1F1"/>
<path d="M19.9325 17.7999C18.4225 17.7999 17.1425 16.6799 17.0225 15.2399C16.9425 14.4099 17.2425 13.5999 17.8425 13.0099C18.3525 12.4899 19.0525 12.2 19.8025 12.2H21.8825C22.8725 12.23 23.6325 13.0099 23.6325 13.9699V16.03C23.6325 16.99 22.8725 17.7699 21.9125 17.7999H19.9325ZM21.8625 13.7H19.8125C19.4625 13.7 19.1425 13.8299 18.9125 14.0699C18.6225 14.3499 18.4825 14.7299 18.5225 15.1099C18.5825 15.7699 19.2125 16.2999 19.9325 16.2999H21.8925C22.0225 16.2999 22.1425 16.18 22.1425 16.03V13.9699C22.1425 13.8199 22.0225 13.71 21.8625 13.7Z" fill="#F1F1F1"/>
<path d="M14.3325 12.75H7.33252C6.92252 12.75 6.58252 12.41 6.58252 12C6.58252 11.59 6.92252 11.25 7.33252 11.25H14.3325C14.7425 11.25 15.0825 11.59 15.0825 12C15.0825 12.41 14.7425 12.75 14.3325 12.75Z" fill="#F1F1F1"/>
</svg>
