<svg width="25" height="24" viewBox="0 0 25 24" fill="none" xmlns="http://www.w3.org/2000/svg">
<path d="M12.84 7.62H7.56996C5.70996 7.62 5.28997 8.55001 5.05997 9.70001L4.20996 13.75H16.21L15.36 9.70001C15.11 8.55001 14.7 7.62 12.84 7.62Z" stroke="#F1F1F1" stroke-width="1.5" stroke-linecap="round" stroke-linejoin="round"/>
<path d="M17.6898 20.36C17.7698 21.24 17.0698 22 16.1698 22H14.7598C13.9498 22 13.8398 21.65 13.6898 21.23L13.5398 20.78C13.3298 20.17 13.1898 19.75 12.1098 19.75H8.26984C7.18984 19.75 7.02983 20.22 6.83983 20.78L6.68984 21.23C6.54984 21.66 6.43983 22 5.61983 22H4.20982C3.30982 22 2.59983 21.24 2.68983 20.36L3.10983 15.79C3.21983 14.66 3.42983 13.74 5.39983 13.74H14.9698C16.9398 13.74 17.1498 14.66 17.2598 15.79L17.6898 20.36Z" stroke="#F1F1F1" stroke-width="1.5" stroke-linecap="round" stroke-linejoin="round"/>
<path d="M4.19971 11.5H3.44971" stroke="#F1F1F1" stroke-width="1.5" stroke-linecap="round" stroke-linejoin="round"/>
<path d="M16.9497 11.5H16.1997" stroke="#F1F1F1" stroke-width="1.5" stroke-linecap="round" stroke-linejoin="round"/>
<path d="M5.69971 16.75H7.94971" stroke="#F1F1F1" stroke-width="1.5" stroke-linecap="round" stroke-linejoin="round"/>
<path d="M12.4497 16.75H14.6997" stroke="#F1F1F1" stroke-width="1.5" stroke-linecap="round" stroke-linejoin="round"/>
<path d="M19.4098 8.73992C19.6898 8.08992 19.5898 7.20993 19.0698 6.43993C18.5598 5.66993 17.7798 5.23993 17.0698 5.24993" stroke="#F1F1F1" stroke-width="1.5" stroke-linecap="round" stroke-linejoin="round"/>
<path d="M22.5199 9.72998C22.9399 8.21998 22.6398 6.37002 21.5698 4.77002C20.4998 3.17002 18.8998 2.19 17.3398 2" stroke="#F1F1F1" stroke-width="1.5" stroke-linecap="round" stroke-linejoin="round"/>
</svg>
