<svg width="20" height="26" viewBox="0 0 20 26" fill="none" xmlns="http://www.w3.org/2000/svg">
<path d="M19.3735 9.09454C17.7349 10.1071 16.7229 11.8429 16.7229 13.7715C16.7229 15.9412 18.0241 17.9181 20 18.7377C19.6145 19.9914 19.0361 21.1485 18.3133 22.2093C17.253 23.704 16.1446 25.2469 14.506 25.2469C12.8675 25.2469 12.3855 24.2826 10.4578 24.2826C8.57831 24.2826 7.90361 25.2951 6.36145 25.2951C4.81928 25.2951 3.75904 23.8969 2.55422 22.1611C0.963856 19.7503 0.0481928 16.9538 0 14.0126C0 9.23919 3.08434 6.68374 6.16867 6.68374C7.80723 6.68374 9.15663 7.74449 10.1687 7.74449C11.1325 7.74449 12.6747 6.63553 14.506 6.63553C16.4337 6.58731 18.2651 7.50341 19.3735 9.09454ZM13.6386 4.61045C14.4578 3.64613 14.8916 2.44073 14.9398 1.18712C14.9398 1.04247 14.9398 0.849604 14.8916 0.704956C13.494 0.849604 12.1928 1.52463 11.2771 2.58538C10.4578 3.50148 9.9759 4.65867 9.92771 5.91229C9.92771 6.05693 9.92771 6.20158 9.9759 6.34623C10.0723 6.34623 10.2169 6.39445 10.3133 6.39445C11.6145 6.29801 12.8193 5.62299 13.6386 4.61045Z" fill="white"/>
</svg>
