<svg width="20" height="20" viewBox="0 0 20 20" fill="none" xmlns="http://www.w3.org/2000/svg">
<g clip-path="url(#clip0_1_2)">
<path d="M10 4.4C3.439 4.4 0 9.232 0 10C0 10.766 3.439 15.6 10 15.6C16.56 15.6 20 10.766 20 10C20 9.232 16.56 4.4 10 4.4ZM10 14.307C7.545 14.307 5.555 12.379 5.555 10C5.555 7.621 7.545 5.691 10 5.691C12.455 5.691 14.444 7.621 14.444 10C14.444 12.379 12.455 14.307 10 14.307ZM10 10C9.593 9.553 10.663 7.846 10 7.846C8.772 7.846 7.777 8.811 7.777 10C7.777 11.189 8.772 12.154 10 12.154C11.228 12.154 12.223 11.189 12.223 10C12.223 9.453 10.346 10.379 10 10Z" fill="white" fill-opacity="0.9"/>
<path d="M18.7907 -0.752438C18.5207 -1.08252 18.0796 -1.08252 17.8096 -0.752438L1.20253 19.5586C0.932491 19.8887 0.932491 20.4279 1.20253 20.7579C1.33754 20.912 1.50856 21 1.68859 21C1.86861 21 2.03963 20.912 2.17465 20.7469L18.7907 0.435862C19.0698 0.105779 19.0698 -0.422354 18.7907 -0.752438Z" fill="white"/>
</g>
<defs>
<clipPath id="clip0_1_2">
<rect width="20" height="20" fill="white"/>
</clipPath>
</defs>
</svg>
