<svg width="20" height="21" viewBox="0 0 20 21" fill="none" xmlns="http://www.w3.org/2000/svg">
<path fill-rule="evenodd" clip-rule="evenodd" d="M3.25 9.055V7C3.25 5.20979 3.96116 3.4929 5.22703 2.22703C6.4929 0.961159 8.20979 0.25 10 0.25C11.7902 0.25 13.5071 0.961159 14.773 2.22703C16.0388 3.4929 16.75 5.20979 16.75 7V9.055C17.865 9.138 18.59 9.348 19.121 9.879C20 10.757 20 12.172 20 15C20 17.828 20 19.243 19.121 20.121C18.243 21 16.828 21 14 21H6C3.172 21 1.757 21 0.879 20.121C-5.96046e-08 19.243 0 17.828 0 15C0 12.172 -5.96046e-08 10.757 0.879 9.879C1.409 9.348 2.135 9.138 3.25 9.055ZM4.75 7C4.75 5.60761 5.30312 4.27225 6.28769 3.28769C7.27225 2.30312 8.60761 1.75 10 1.75C11.3924 1.75 12.7277 2.30312 13.7123 3.28769C14.6969 4.27225 15.25 5.60761 15.25 7V9.004C14.8673 9.00067 14.4507 8.99933 14 9H6C5.54867 8.99933 5.132 9.00067 4.75 9.004V7ZM6 16C6.26522 16 6.51957 15.8946 6.70711 15.7071C6.89464 15.5196 7 15.2652 7 15C7 14.7348 6.89464 14.4804 6.70711 14.2929C6.51957 14.1054 6.26522 14 6 14C5.73478 14 5.48043 14.1054 5.29289 14.2929C5.10536 14.4804 5 14.7348 5 15C5 15.2652 5.10536 15.5196 5.29289 15.7071C5.48043 15.8946 5.73478 16 6 16ZM10 16C10.2652 16 10.5196 15.8946 10.7071 15.7071C10.8946 15.5196 11 15.2652 11 15C11 14.7348 10.8946 14.4804 10.7071 14.2929C10.5196 14.1054 10.2652 14 10 14C9.73478 14 9.48043 14.1054 9.29289 14.2929C9.10536 14.4804 9 14.7348 9 15C9 15.2652 9.10536 15.5196 9.29289 15.7071C9.48043 15.8946 9.73478 16 10 16ZM15 15C15 15.2652 14.8946 15.5196 14.7071 15.7071C14.5196 15.8946 14.2652 16 14 16C13.7348 16 13.4804 15.8946 13.2929 15.7071C13.1054 15.5196 13 15.2652 13 15C13 14.7348 13.1054 14.4804 13.2929 14.2929C13.4804 14.1054 13.7348 14 14 14C14.2652 14 14.5196 14.1054 14.7071 14.2929C14.8946 14.4804 15 14.7348 15 15Z" fill="white"/>
</svg>
