<svg width="21" height="20" viewBox="0 0 21 20" fill="none" xmlns="http://www.w3.org/2000/svg">
<path d="M18.94 4.82L13.18 0.789999C11.61 -0.310001 9.2 -0.250001 7.69 0.919999L2.68 4.83C1.68 5.61 0.889999 7.21 0.889999 8.47V15.37C0.889999 17.92 2.96 20 5.51 20H16.29C18.84 20 20.91 17.93 20.91 15.38V8.6C20.91 7.25 20.04 5.59 18.94 4.82ZM11.65 16C11.65 16.41 11.31 16.75 10.9 16.75C10.49 16.75 10.15 16.41 10.15 16V13C10.15 12.59 10.49 12.25 10.9 12.25C11.31 12.25 11.65 12.59 11.65 13V16Z" fill="#FA6900"/>
</svg>
