<svg width="17" height="16" viewBox="0 0 17 16" fill="none" xmlns="http://www.w3.org/2000/svg">
<g clip-path="url(#clip0_54_6395)">
<path d="M15.8493 11.5191V11.561L15.8536 11.5864C15.8505 11.5917 15.8445 11.6002 15.8331 11.6114C15.7975 11.6466 15.7433 11.6705 15.6907 11.6705C15.6197 11.6705 15.5069 11.6262 15.4199 11.4949C15.0027 10.6305 14.1211 10.0421 13.0595 10.0421C12.0998 10.0421 11.2974 10.528 10.8144 11.2377V11.0849V5.27688C10.8144 5.17846 10.9146 5.07124 11.0281 5.07124H13.4987C13.6102 5.07124 13.7166 5.1052 13.8034 5.15684H13.6085H11.4124H10.9124V5.65684V8.37086V8.87086H11.4124H15.2006H15.8462C15.8483 8.90337 15.8493 8.93576 15.8493 8.96794V11.5191ZM15.8566 11.5795C15.8567 11.5795 15.8565 11.5805 15.8557 11.5823C15.8561 11.5804 15.8565 11.5795 15.8566 11.5795ZM15.6319 8.11787L15.5193 7.92591L15.6359 8.12237C15.6382 8.12711 15.6406 8.13187 15.6429 8.13663L15.6319 8.11787ZM10.3144 11.5849H10.6124C10.5985 11.6132 10.585 11.6417 10.5721 11.6705H7.27147C6.8706 10.7135 5.89016 10.0421 4.76916 10.0421C3.62474 10.0421 2.70394 10.7332 2.28178 11.6705H1.48096V2.90002H8.6673C9.00052 2.90002 9.26534 3.17003 9.26534 3.48563V11.0849V11.5849H9.76534H10.3144Z" fill="#FA6900" stroke="#FA6900"/>
<mask id="path-2-inside-1_54_6395" fill="white">
<path d="M13.0606 11.0847C12.1273 11.0847 11.4136 11.7904 11.4136 12.7131C11.4136 13.6359 12.1273 14.3415 13.0606 14.3415C13.994 14.3415 14.7077 13.6359 14.7077 12.7131C14.7077 11.7904 13.994 11.0847 13.0606 11.0847ZM13.0606 13.4731C12.6214 13.4731 12.2921 13.1474 12.2921 12.7131C12.2921 12.2789 12.6214 11.9532 13.0606 11.9532C13.4999 11.9532 13.8292 12.2789 13.8292 12.7131C13.8292 13.1474 13.4999 13.4731 13.0606 13.4731Z"/>
</mask>
<path d="M13.0606 11.0847C12.1273 11.0847 11.4136 11.7904 11.4136 12.7131C11.4136 13.6359 12.1273 14.3415 13.0606 14.3415C13.994 14.3415 14.7077 13.6359 14.7077 12.7131C14.7077 11.7904 13.994 11.0847 13.0606 11.0847ZM13.0606 13.4731C12.6214 13.4731 12.2921 13.1474 12.2921 12.7131C12.2921 12.2789 12.6214 11.9532 13.0606 11.9532C13.4999 11.9532 13.8292 12.2789 13.8292 12.7131C13.8292 13.1474 13.4999 13.4731 13.0606 13.4731Z" fill="#FA6900"/>
<path d="M13.0606 10.0847C11.5858 10.0847 10.4136 11.2273 10.4136 12.7131H12.4136C12.4136 12.3534 12.6688 12.0847 13.0606 12.0847V10.0847ZM10.4136 12.7131C10.4136 14.1989 11.5858 15.3415 13.0606 15.3415V13.3415C12.6688 13.3415 12.4136 13.0729 12.4136 12.7131H10.4136ZM13.0606 15.3415C14.5355 15.3415 15.7077 14.1989 15.7077 12.7131H13.7077C13.7077 13.0729 13.4525 13.3415 13.0606 13.3415V15.3415ZM15.7077 12.7131C15.7077 11.2273 14.5355 10.0847 13.0606 10.0847V12.0847C13.4525 12.0847 13.7077 12.3534 13.7077 12.7131H15.7077ZM13.0606 12.4731C13.0942 12.4731 13.1577 12.4885 13.2148 12.5449C13.2723 12.6018 13.2921 12.6699 13.2921 12.7131H11.2921C11.2921 13.7102 12.0797 14.4731 13.0606 14.4731V12.4731ZM13.2921 12.7131C13.2921 12.7563 13.2723 12.8245 13.2148 12.8814C13.1577 12.9378 13.0942 12.9532 13.0606 12.9532V10.9532C12.0798 10.9532 11.2921 11.716 11.2921 12.7131H13.2921ZM13.0606 12.9532C13.0271 12.9532 12.9636 12.9378 12.9065 12.8814C12.849 12.8245 12.8292 12.7563 12.8292 12.7131H14.8292C14.8292 11.716 14.0416 10.9532 13.0606 10.9532V12.9532ZM12.8292 12.7131C12.8292 12.6699 12.849 12.6018 12.9065 12.5449C12.9636 12.4885 13.0271 12.4731 13.0606 12.4731V14.4731C14.0416 14.4731 14.8292 13.7102 14.8292 12.7131H12.8292Z" fill="#FA6900" mask="url(#path-2-inside-1_54_6395)"/>
<mask id="path-4-inside-2_54_6395" fill="white">
<path d="M4.9116 11C3.94516 11 3.20605 11.7307 3.20605 12.6862C3.20605 13.6417 3.94516 14.3724 4.9116 14.3724C5.87804 14.3724 6.61714 13.6417 6.61714 12.6862C6.61714 11.7307 5.87804 11 4.9116 11ZM4.9116 13.4731C4.45675 13.4731 4.11575 13.1359 4.11575 12.6862C4.11575 12.2366 4.45679 11.8993 4.9116 11.8993C5.36641 11.8993 5.70745 12.2366 5.70745 12.6862C5.70745 13.1359 5.36644 13.4731 4.9116 13.4731Z"/>
</mask>
<path d="M4.9116 11C3.94516 11 3.20605 11.7307 3.20605 12.6862C3.20605 13.6417 3.94516 14.3724 4.9116 14.3724C5.87804 14.3724 6.61714 13.6417 6.61714 12.6862C6.61714 11.7307 5.87804 11 4.9116 11ZM4.9116 13.4731C4.45675 13.4731 4.11575 13.1359 4.11575 12.6862C4.11575 12.2366 4.45679 11.8993 4.9116 11.8993C5.36641 11.8993 5.70745 12.2366 5.70745 12.6862C5.70745 13.1359 5.36644 13.4731 4.9116 13.4731Z" fill="#FA6900"/>
<path d="M4.9116 10C3.40366 10 2.20605 11.1677 2.20605 12.6862H4.20605C4.20605 12.2937 4.48666 12 4.9116 12V10ZM2.20605 12.6862C2.20605 14.2048 3.40366 15.3724 4.9116 15.3724V13.3724C4.48666 13.3724 4.20605 13.0787 4.20605 12.6862H2.20605ZM4.9116 15.3724C6.41953 15.3724 7.61714 14.2048 7.61714 12.6862H5.61714C5.61714 13.0787 5.33654 13.3724 4.9116 13.3724V15.3724ZM7.61714 12.6862C7.61714 11.1677 6.41953 10 4.9116 10V12C5.33654 12 5.61714 12.2937 5.61714 12.6862H7.61714ZM4.9116 12.4731C4.93732 12.4731 4.99406 12.4856 5.04623 12.5372C5.09892 12.5893 5.11575 12.6507 5.11575 12.6862H3.11575C3.11575 13.6987 3.91509 14.4731 4.9116 14.4731V12.4731ZM5.11575 12.6862C5.11575 12.7217 5.0989 12.7831 5.04623 12.8352C4.99408 12.8868 4.93736 12.8993 4.9116 12.8993V10.8993C3.91516 10.8993 3.11575 11.6737 3.11575 12.6862H5.11575ZM4.9116 12.8993C4.88584 12.8993 4.82912 12.8868 4.77696 12.8352C4.72429 12.7831 4.70745 12.7217 4.70745 12.6862H6.70745C6.70745 11.6737 5.90804 10.8993 4.9116 10.8993V12.8993ZM4.70745 12.6862C4.70745 12.6507 4.72428 12.5893 4.77697 12.5372C4.82914 12.4856 4.88587 12.4731 4.9116 12.4731V14.4731C5.9081 14.4731 6.70745 13.6987 6.70745 12.6862H4.70745Z" fill="#FA6900" mask="url(#path-4-inside-2_54_6395)"/>
<path d="M5.13355 13.5762C5.29927 13.5762 5.43361 13.4434 5.43361 13.2796C5.43361 13.1157 5.29927 12.9829 5.13355 12.9829C4.96784 12.9829 4.8335 13.1157 4.8335 13.2796C4.8335 13.4434 4.96784 13.5762 5.13355 13.5762Z" fill="#FA6900"/>
<path d="M12.4246 12.4273C12.5682 12.4273 12.6847 12.3122 12.6847 12.1702C12.6847 12.0282 12.5682 11.9131 12.4246 11.9131C12.281 11.9131 12.1646 12.0282 12.1646 12.1702C12.1646 12.3122 12.281 12.4273 12.4246 12.4273Z" fill="#FA6900"/>
</g>
<defs>
<clipPath id="clip0_54_6395">
<rect width="16.1834" height="16" fill="white" transform="translate(0.171875)"/>
</clipPath>
</defs>
</svg>
