<svg width="24" height="24" viewBox="0 0 24 24" fill="none" xmlns="http://www.w3.org/2000/svg">
<g clip-path="url(#clip0_54_7941)">
<path d="M20 17.4535L19.8174 17.2889C19.2997 16.8175 18.8464 16.277 18.4698 15.6821C18.0582 14.861 17.8118 13.9641 17.745 13.0442V10.335C17.7485 8.89031 17.2354 7.49397 16.3021 6.40838C15.3688 5.32279 14.0795 4.62268 12.6765 4.43959V3.73213C12.6765 3.53796 12.601 3.35174 12.4666 3.21444C12.3321 3.07714 12.1498 3 11.9597 3C11.7696 3 11.5873 3.07714 11.4529 3.21444C11.3185 3.35174 11.243 3.53796 11.243 3.73213V4.45056C9.85249 4.64685 8.57878 5.35119 7.65773 6.43313C6.73669 7.51507 6.23073 8.9013 6.23356 10.335V13.0442C6.16674 13.9641 5.92029 14.861 5.50872 15.6821C5.13873 16.2757 4.69272 16.8161 4.18255 17.2889L4 17.4535V19H20V17.4535Z" fill="white"/>
<path d="M11 19C11.0334 19.5544 11.1531 20.0623 11.3369 20.4299C11.5207 20.7975 11.7562 21 12 21C12.2438 21 12.4793 20.7975 12.6631 20.4299C12.8469 20.0623 12.9666 19.5544 13 19H11Z" fill="white"/>
</g>
<defs>
<clipPath id="clip0_54_7941">
<rect width="24" height="24" fill="white"/>
</clipPath>
</defs>
</svg>
