<svg width="10" height="10" viewBox="0 0 10 10" fill="none" xmlns="http://www.w3.org/2000/svg">
<path d="M4.0575 8.85898C4.00917 8.8119 3.8025 8.63411 3.6325 8.4685C2.56333 7.49756 0.813333 4.96468 0.279167 3.63898C0.193333 3.43765 0.0116667 2.92864 0 2.65668C0 2.39608 0.06 2.14767 0.181667 1.91061C0.351667 1.61511 0.619167 1.37806 0.935 1.24817C1.15417 1.16455 1.81 1.03466 1.82167 1.03466C2.53917 0.904768 3.705 0.833328 4.99333 0.833328C6.22083 0.833328 7.33917 0.904768 8.0675 1.01112C8.07917 1.02329 8.89417 1.15319 9.17333 1.29525C9.68333 1.55585 10 2.06486 10 2.60959V2.65668C9.9875 3.01144 9.67083 3.7575 9.65917 3.7575C9.12417 5.01177 7.46 7.48619 6.35417 8.48067C6.35417 8.48067 6.07 8.76075 5.8925 8.88253C5.6375 9.07249 5.32167 9.16666 5.00583 9.16666C4.65333 9.16666 4.325 9.06031 4.0575 8.85898Z" fill="#A8A8A8"/>
</svg>
