<svg width="21" height="20" viewBox="0 0 21 20" fill="none" xmlns="http://www.w3.org/2000/svg">
<path d="M12.8931 1.19949L12.8934 1.19968L18.6533 5.22962C18.6533 5.22964 18.6533 5.22966 18.6534 5.22968C19.1226 5.55815 19.5668 6.09671 19.8943 6.7239C20.2217 7.35111 20.41 8.02427 20.41 8.6V15.38C20.41 17.6539 18.5639 19.5 16.29 19.5H5.51C3.23755 19.5 1.39 17.6453 1.39 15.37V8.47C1.39 7.93556 1.56039 7.29649 1.85857 6.69086C2.15663 6.08552 2.56107 5.55688 2.98752 5.22425L2.98762 5.22417L7.99624 1.31524C7.99647 1.31507 7.9967 1.31489 7.99692 1.31472C9.33376 0.279436 11.5028 0.225416 12.8931 1.19949ZM10.9 17.25C11.5861 17.25 12.15 16.6861 12.15 16V13C12.15 12.3139 11.5861 11.75 10.9 11.75C10.2139 11.75 9.65 12.3139 9.65 13V16C9.65 16.6861 10.2139 17.25 10.9 17.25Z" stroke="#505050"/>
</svg>
