<svg width="20" height="33" viewBox="0 0 20 33" fill="none" xmlns="http://www.w3.org/2000/svg">
<circle cx="10.5" cy="30.5" r="2" fill="#32323D" stroke="white"/>
<circle cx="10" cy="10" r="9" fill="#060962" stroke="white" stroke-width="2"/>
<rect x="10" y="20" width="1" height="11" fill="#32323D"/>
<g clip-path="url(#clip0_1_64)">
<path d="M13.875 11.234V7.76607C13.875 7.71616 13.8617 7.66716 13.8365 7.62408C13.8113 7.581 13.7751 7.5454 13.7316 7.52094L10.6379 5.7807C10.5958 5.75702 10.5483 5.74458 10.5 5.74458C10.4517 5.74458 10.4042 5.75702 10.3621 5.7807L7.26836 7.52094C7.22487 7.5454 7.18867 7.581 7.16347 7.62408C7.13828 7.66716 7.125 7.71616 7.125 7.76607V11.234C7.125 11.2839 7.13828 11.3329 7.16347 11.376C7.18867 11.419 7.22487 11.4546 7.26836 11.4791L10.3621 13.2193C10.4042 13.243 10.4517 13.2554 10.5 13.2554C10.5483 13.2554 10.5958 13.243 10.6379 13.2193L13.7316 11.4791C13.7751 11.4546 13.8113 11.419 13.8365 11.376C13.8617 11.3329 13.875 11.2839 13.875 11.234Z" stroke="white" stroke-width="0.9" stroke-linecap="round" stroke-linejoin="round"/>
<path d="M12.2234 10.3617V8.53359L8.8125 6.65234" stroke="white" stroke-width="0.9" stroke-linecap="round" stroke-linejoin="round"/>
<path d="M13.8363 7.62363L10.5335 9.50002L7.16405 7.62328" stroke="white" stroke-width="0.9" stroke-linecap="round" stroke-linejoin="round"/>
<path d="M10.5333 9.5L10.5003 13.2554" stroke="white" stroke-width="0.9" stroke-linecap="round" stroke-linejoin="round"/>
</g>
<defs>
<clipPath id="clip0_1_64">
<rect width="9" height="9" fill="white" transform="translate(6 5)"/>
</clipPath>
</defs>
</svg>
