<svg width="20" height="33" viewBox="0 0 20 33" fill="none" xmlns="http://www.w3.org/2000/svg">
<circle cx="10.5" cy="30.5" r="2" fill="#32323D" stroke="white"/>
<circle cx="10" cy="10" r="9" fill="#FA6900" stroke="white" stroke-width="2"/>
<rect x="10" y="20" width="1" height="11" fill="#32323D"/>
<path d="M9.96756 7.99363C9.76978 7.99363 9.57644 8.05227 9.41199 8.16216C9.24754 8.27204 9.11937 8.42822 9.04368 8.61094C8.96799 8.79367 8.94819 8.99473 8.98677 9.18872C9.02536 9.3827 9.1206 9.56088 9.26045 9.70073C9.40031 9.84058 9.57849 9.93583 9.77247 9.97441C9.96645 10.013 10.1675 9.99319 10.3502 9.9175C10.533 9.84182 10.6891 9.71364 10.799 9.5492C10.9089 9.38475 10.9676 9.19141 10.9676 8.99363C10.9673 8.7285 10.8618 8.47432 10.6743 8.28685C10.4869 8.09938 10.2327 7.99393 9.96756 7.99363V7.99363ZM9.96756 9.49363C9.86867 9.49363 9.772 9.4643 9.68977 9.40936C9.60755 9.35442 9.54346 9.27633 9.50562 9.18497C9.46778 9.0936 9.45787 8.99307 9.47717 8.89608C9.49646 8.79909 9.54408 8.71 9.61401 8.64007C9.68393 8.57015 9.77302 8.52253 9.87001 8.50323C9.96701 8.48394 10.0675 8.49384 10.1589 8.53169C10.2503 8.56953 10.3284 8.63362 10.3833 8.71584C10.4382 8.79806 10.4676 8.89473 10.4676 8.99363C10.4674 9.12619 10.4147 9.25327 10.3209 9.34701C10.2272 9.44074 10.1001 9.49347 9.96756 9.49363V9.49363Z" fill="white"/>
<path d="M11.8892 7.07055C11.414 6.59555 10.7798 6.31339 10.1089 6.27851C9.43798 6.24363 8.77792 6.45851 8.25611 6.88168C7.73431 7.30484 7.38774 7.9063 7.28331 8.56996C7.17888 9.23362 7.32399 9.91244 7.69062 10.4754L9.5798 13.3756C9.62184 13.4401 9.67932 13.4932 9.74703 13.5299C9.81475 13.5666 9.89055 13.5858 9.96757 13.5858C10.0446 13.5858 10.1204 13.5666 10.1881 13.5299C10.2558 13.4932 10.3133 13.4401 10.3553 13.3756L12.2446 10.4754C12.5848 9.95317 12.7351 9.32987 12.6704 8.70997C12.6057 8.09008 12.3299 7.51126 11.8892 7.07055V7.07055ZM11.8256 10.2025L9.96758 13.0548L8.1095 10.2025C7.54075 9.32937 7.66273 8.16094 8.39955 7.42409C8.60546 7.21817 8.84992 7.05483 9.11896 6.94338C9.38801 6.83194 9.67637 6.77458 9.96758 6.77458C10.2588 6.77458 10.5471 6.83194 10.8162 6.94338C11.0852 7.05483 11.3297 7.21817 11.5356 7.42409C12.2724 8.16094 12.3944 9.32937 11.8256 10.2025Z" fill="white"/>
</svg>
