<svg width="121" height="117" viewBox="0 0 121 117" fill="none" xmlns="http://www.w3.org/2000/svg">
<circle cx="62.1343" cy="58.3658" r="58.3658" fill="#FF9141"/>
<path d="M53.8921 31.7242C53.9019 31.6029 53.9106 31.4813 53.9106 31.3576C53.9106 28.9046 51.9141 26.9164 49.4509 26.9164C48.5392 26.9164 47.6925 27.1899 46.9859 27.6575C46.0452 25.9883 44.2538 24.8589 42.195 24.8589C39.6104 24.8589 37.4483 26.6393 36.8635 29.0338C36.395 28.809 35.8718 28.6794 35.317 28.6794C33.5191 28.6794 32.0353 30.003 31.7842 31.7242H53.8921Z" fill="white"/>
<path d="M92.2695 65.6984C92.2597 65.5772 92.251 65.4556 92.251 65.3315C92.251 62.8788 94.2475 60.8903 96.7107 60.8903C97.6223 60.8903 98.4691 61.1638 99.1757 61.6314C100.116 59.9622 101.908 58.8328 103.966 58.8328C106.551 58.8328 108.713 60.6131 109.298 63.0077C109.766 62.7829 110.289 62.6533 110.844 62.6533C112.642 62.6533 114.126 63.9769 114.377 65.6981L92.2695 65.6984Z" fill="white"/>
<path d="M93.1905 19.7103C93.694 19.7103 94.1021 19.3038 94.1021 18.8024C94.1021 18.301 93.694 17.8945 93.1905 17.8945C92.687 17.8945 92.2788 18.301 92.2788 18.8024C92.2788 19.3038 92.687 19.7103 93.1905 19.7103Z" fill="white"/>
<path d="M36.191 38.808C36.191 38.3068 35.783 37.9001 35.2793 37.9001C34.776 37.9001 34.3677 38.3064 34.3677 38.808C34.3677 39.3092 34.7757 39.7159 35.2793 39.7159C35.783 39.7155 36.191 39.3092 36.191 38.808Z" fill="white"/>
<path d="M54.7539 63.1349C54.7539 62.6326 54.3452 62.2256 53.8408 62.2256C53.3365 62.2256 52.9277 62.6326 52.9277 63.1349C52.9277 63.6372 53.3365 64.0446 53.8408 64.0446C54.3452 64.0442 54.7539 63.6372 54.7539 63.1349Z" fill="white"/>
<path d="M67.377 85.1914C67.377 84.6891 66.9683 84.2817 66.4639 84.2817C65.9595 84.2817 65.5508 84.6891 65.5508 85.1914C65.5508 85.6937 65.9595 86.1011 66.4639 86.1011C66.9683 86.1007 67.377 85.6937 67.377 85.1914Z" fill="white"/>
<path d="M58.3568 102.162C59.1073 102.162 59.7156 101.556 59.7156 100.808C59.7156 100.061 59.1073 99.4553 58.3568 99.4553C57.6064 99.4553 56.998 100.061 56.998 100.808C56.998 101.556 57.6064 102.162 58.3568 102.162Z" fill="white"/>
<path d="M50.0399 10.4106C50.7904 10.4106 51.3987 9.80481 51.3987 9.05749C51.3987 8.31017 50.7904 7.70435 50.0399 7.70435C49.2895 7.70435 48.6812 8.31017 48.6812 9.05749C48.6812 9.80481 49.2895 10.4106 50.0399 10.4106Z" fill="white"/>
<path d="M83.0018 71.9304C83.7523 71.9304 84.3606 71.3246 84.3606 70.5773C84.3606 69.8299 83.7523 69.2241 83.0018 69.2241C82.2514 69.2241 81.6431 69.8299 81.6431 70.5773C81.6431 71.3246 82.2514 71.9304 83.0018 71.9304Z" fill="white"/>
<path d="M8.78775 78.4435L16.1418 68.2879L27.9317 63.5019L70.5387 49.7276L81.278 34.0855L88.0484 32.9182L92.9512 35.8365L90.1496 50.6614L81.278 57.4318L74.6243 63.5019L66.6866 71.3229L57.1146 77.5097L27.2313 89.0661L11.3558 92.9182L2.95117 91.4007L3.76829 85.2139L8.78775 78.4435Z" fill="white"/>
<path d="M21.2741 72.1382C20.8875 73.1432 20.0138 75.8499 19.7949 80.189C23.5157 79.4503 26.3209 76.1362 26.3209 72.1528H21.462C21.3982 72.151 21.338 72.1382 21.2741 72.1382Z" fill="#060962"/>
<path d="M37.6568 75.2279C38.5513 75.2279 39.2764 73.8511 39.2764 72.1528C39.2764 70.4544 38.5513 69.0776 37.6568 69.0776C36.7623 69.0776 36.0371 70.4544 36.0371 72.1528C36.0371 73.8511 36.7623 75.2279 37.6568 75.2279Z" fill="#060962"/>
<path d="M44.1371 73.1779C45.0326 73.1779 45.7586 71.8019 45.7586 70.1046C45.7586 68.4072 45.0326 67.0312 44.1371 67.0312C43.2416 67.0312 42.5156 68.4072 42.5156 70.1046C42.5156 71.8019 43.2416 73.1779 44.1371 73.1779Z" fill="#060962"/>
<path d="M50.6139 71.1278C51.5074 71.1278 52.2317 69.751 52.2317 68.0527C52.2317 66.3543 51.5074 64.9775 50.6139 64.9775C49.7204 64.9775 48.9961 66.3543 48.9961 68.0527C48.9961 69.751 49.7204 71.1278 50.6139 71.1278Z" fill="#060962"/>
<path d="M99.1999 86.7516L67.3796 72.5304C67.6702 72.1377 67.9614 71.7413 68.2533 71.3412C69.0376 70.2651 69.8693 69.1325 70.794 68.0199C75.0201 67.6715 83.1913 64.6146 86.0877 61.7382C86.3558 61.4719 86.54 60.9339 86.6585 60.2609L109.937 46.627L91.4628 51.8252L93.3432 42.7055L99.4607 40.3745L93.6716 41.1096L94.3975 37.5912L97.3978 38.339L104.059 33.5895L95.7435 31.0616L95.7891 30.8317L97.0367 24.7872L91.5467 27.1036L90.2572 27.6472L84.6267 21.9456L78.1463 23.9938L81.4695 31.3534L80.8274 31.6215L80.2857 32.5991L74.2157 43.5792L71.1934 43.964C71.0391 43.8291 70.8438 43.75 70.639 43.7397C70.639 43.7397 60.0346 45.1332 56.0621 48.854C55.3034 49.5653 54.5136 50.6214 54.4552 52.7098C49.709 54.1348 44.9698 55.583 40.2377 57.0544L24.6996 44.4875V34.2407L21.4603 36.2908L18.221 46.5358L25.6335 61.7784C24.9368 62.0191 24.2728 62.2508 23.6709 62.4696C14.7173 65.6962 12.8368 69.3148 10.6609 73.5062C9.36951 75.9923 8.03439 78.5622 4.6966 81.931C2.38933 84.2619 -0.51619 87.7675 0.851758 91.3041C1.77467 93.6898 4.18043 94.9028 7.99974 94.9028C15.0802 94.9028 28.643 91.0342 47.5991 83.6491L97.5802 93.6698L104.059 88.9221V77.2726L100.914 79.4231L99.1999 86.7516ZM98.184 51.6318L86.8063 58.2947C86.8116 57.164 86.6855 56.0365 86.4306 54.935L98.184 51.6318ZM73.2344 45.3575L72.2513 47.1359C72.2466 46.5869 72.175 46.0405 72.0379 45.5089L73.2344 45.3575ZM61.9498 70.1046L37.1005 81.5443L41.6038 82.4471C24.5227 88.8564 13.5463 91.6197 7.99974 91.6197C2.47688 91.6197 2.32914 88.8838 6.87802 84.2875C9.468 81.6738 10.9983 79.4285 12.1382 77.4477L12.1182 77.4824C13.601 79.2224 15.7715 80.346 18.2229 80.346L18.263 80.3423C18.4199 76.3953 19.0728 73.5664 19.5963 71.8993C18.4471 71.6271 17.3722 71.1046 16.4482 70.3691C15.0146 71.9048 14.192 73.5865 13.1761 75.5308C15.3246 71.4124 16.585 68.4886 24.6923 65.5667C37.5729 60.9248 74.1282 50.284 74.1282 50.284L82.8739 34.4668L83.0016 34.7495L91.3406 36.827L88.0502 52.7791L85.794 53.4138C85.6244 53.2095 85.4383 53.1001 85.2322 53.1256C81.1412 53.6619 73.7105 56.0804 70.0444 59.8559C69.2893 60.6329 68.4229 61.689 68.4229 63.9525C68.4229 64.569 68.4813 65.1472 68.5779 65.6743C66.9619 67.5985 65.6505 69.5447 64.3847 71.1898L61.9498 70.1046ZM12.6635 76.5029L12.7438 76.3516C12.7195 76.4026 12.6927 76.4531 12.6635 76.5029Z" fill="#060962"/>
</svg>
