<svg width="27" height="16" viewBox="0 0 27 16" fill="none" xmlns="http://www.w3.org/2000/svg">
<path fill-rule="evenodd" clip-rule="evenodd" d="M13.3481 14.0888C11.9343 15.2806 10.1004 16 8.09634 16C3.62486 16 0 12.4183 0 8C0 3.58172 3.62486 0 8.09634 0C10.1004 0 11.9343 0.719426 13.3481 1.91116C14.7619 0.719426 16.5959 0 18.5999 0C23.0713 0 26.6962 3.58172 26.6962 8C26.6962 12.4183 23.0713 16 18.5999 16C16.5959 16 14.7619 15.2806 13.3481 14.0888Z" fill="#ED0006"/>
<path fill-rule="evenodd" clip-rule="evenodd" d="M13.3481 14.0889C15.089 12.6216 16.1928 10.4381 16.1928 8C16.1928 5.56185 15.089 3.37845 13.3481 1.9111C14.7619 0.719403 16.5959 0 18.5998 0C23.0713 0 26.6962 3.58172 26.6962 8C26.6962 12.4183 23.0713 16 18.5998 16C16.5959 16 14.7619 15.2806 13.3481 14.0889Z" fill="#F9A000"/>
<path fill-rule="evenodd" clip-rule="evenodd" d="M13.348 14.0886C15.0888 12.6213 16.1926 10.4379 16.1926 7.9998C16.1926 5.56168 15.0888 3.3783 13.348 1.91095C11.6072 3.3783 10.5034 5.56168 10.5034 7.9998C10.5034 10.4379 11.6072 12.6213 13.348 14.0886Z" fill="#FF5E00"/>
</svg>
