<svg width="22" height="26" viewBox="0 0 22 26" fill="none" xmlns="http://www.w3.org/2000/svg">
<path d="M19.825 6.37714C19.8007 6.52603 19.7735 6.67821 19.7425 6.8345C18.6786 12.1168 15.0384 13.9413 10.3892 13.9413H8.02205C7.45334 13.9413 6.97438 14.3406 6.88591 14.8827L5.67405 22.3149L5.33078 24.4215C5.27846 24.7411 5.50391 25.0409 5.83441 25.0915C5.86546 25.0964 5.89694 25.0985 5.92884 25.0985H10.1272C10.6244 25.0985 11.0468 24.7493 11.1251 24.2751L11.1663 24.069L11.9566 19.2186L12.0073 18.9525C12.0847 18.4766 12.5079 18.1274 13.0052 18.1274H13.633C17.7007 18.1274 20.885 16.5308 21.8157 11.9099C22.2045 9.97968 22.0033 8.36781 20.9743 7.23428C20.6481 6.88344 20.2589 6.59348 19.825 6.37755V6.37714Z" fill="#179BD7"/>
<path d="M18.712 5.94751C18.3721 5.8525 18.0268 5.77847 17.6771 5.72541C16.9867 5.623 16.2887 5.57364 15.5903 5.57817H9.26643C8.76918 5.57817 8.34595 5.92818 8.26938 6.40323L6.92396 14.6419L6.88525 14.8821C6.97203 14.34 7.45439 13.9402 8.0214 13.9406H10.3885C15.0377 13.9406 18.6776 12.1149 19.7418 6.83385C19.7737 6.67756 19.8005 6.52538 19.8243 6.37649C19.5436 6.23418 19.2509 6.11491 18.9494 6.0199C18.8702 5.9944 18.7911 5.97054 18.7112 5.94751H18.712Z" fill="#222D65"/>
<path d="M8.2696 6.40305C8.34532 5.9276 8.76898 5.57717 9.26665 5.57882H15.5905C16.3396 5.57882 17.0389 5.62612 17.6773 5.72606C18.1091 5.79187 18.5353 5.88976 18.9513 6.01973C19.2652 6.12049 19.557 6.23936 19.8263 6.37632C20.1427 4.42431 19.8237 3.09541 18.7322 1.89196C17.528 0.567177 15.3561 0 12.5772 0H4.50898C3.94112 0 3.45706 0.399368 3.36944 0.942279L0.00865296 21.5392C-0.0513231 21.9048 0.206872 22.2482 0.585018 22.3062C0.620749 22.3116 0.656479 22.3144 0.692635 22.3144H5.67362L6.92419 14.6421L8.2696 6.40347V6.40305Z" fill="#253B80"/>
</svg>
