<svg width="20" height="18" viewBox="0 0 20 18" fill="none" xmlns="http://www.w3.org/2000/svg">
<path fill-rule="evenodd" clip-rule="evenodd" d="M3 3.25C2.27065 3.25 1.57118 3.53973 1.05546 4.05546C0.539731 4.57118 0.25 5.27065 0.25 6V15C0.25 15.7293 0.539731 16.4288 1.05546 16.9445C1.57118 17.4603 2.27065 17.75 3 17.75H17C17.7293 17.75 18.4288 17.4603 18.9445 16.9445C19.4603 16.4288 19.75 15.7293 19.75 15V6C19.75 5.27065 19.4603 4.57118 18.9445 4.05546C18.4288 3.53973 17.7293 3.25 17 3.25H3ZM14.5 9.25C14.1685 9.25 13.8505 9.3817 13.6161 9.61612C13.3817 9.85054 13.25 10.1685 13.25 10.5C13.25 10.8315 13.3817 11.1495 13.6161 11.3839C13.8505 11.6183 14.1685 11.75 14.5 11.75C14.8315 11.75 15.1495 11.6183 15.3839 11.3839C15.6183 11.1495 15.75 10.8315 15.75 10.5C15.75 10.1685 15.6183 9.85054 15.3839 9.61612C15.1495 9.3817 14.8315 9.25 14.5 9.25Z" fill="black"/>
<path d="M14.485 0.069C14.7811 -0.00990156 15.0913 -0.0197174 15.3918 0.0403101C15.6923 0.100338 15.9749 0.228603 16.218 0.415207C16.461 0.601811 16.6579 0.841763 16.7935 1.11654C16.9291 1.39133 16.9998 1.69359 17 2H7L14.485 0.069Z" fill="black"/>
</svg>
