<svg width="31" height="30" viewBox="0 0 31 30" fill="none" xmlns="http://www.w3.org/2000/svg">
<path fill-rule="evenodd" clip-rule="evenodd" d="M15.7538 0L29 3.92667L30.5 5.13291V22.4308L29.6462 23.6627L15.5 28L1.33077 23.6627L0.5 22.4308V5.13291L1.90769 3.92667L15.1308 0H15.7538ZM15.5462 2.56645L6.31538 5.13291L7.58462 5.6462L15.5 7.956L22.4231 5.87718L24.6154 5.13291L15.5462 2.56645V2.56645ZM2.80769 21.4555L14.3462 24.9716V10.2658L2.80769 6.82676V21.4555ZM16.6538 10.2658V24.9716L28.1923 21.4555V6.74977L23.5308 8.16902V14.7571L21.2231 15.4244V8.87223L16.6538 10.2658Z" fill="white"/>
</svg>
