<svg width="16" height="16" viewBox="0 0 16 16" fill="none" xmlns="http://www.w3.org/2000/svg">
<g clip-path="url(#clip0_31_15)">
<path d="M15.5884 3.20083C15.5388 3.20168 15.4898 3.21175 15.4439 3.23052L7.84584 6.43119C7.7732 6.46167 7.71117 6.51292 7.66754 6.57852C7.62391 6.64412 7.60062 6.72114 7.60059 6.79993V15.5989C7.60049 15.6648 7.61671 15.7298 7.6478 15.788C7.67889 15.8462 7.72389 15.8958 7.77879 15.9324C7.83368 15.9689 7.89677 15.9914 7.96244 15.9977C8.0281 16.0039 8.0943 15.9939 8.15513 15.9684L15.754 12.7677C15.8267 12.7372 15.8889 12.6858 15.9325 12.62C15.9761 12.5543 15.9994 12.4771 15.9992 12.3982V3.59926C15.999 3.54593 15.9882 3.49318 15.9673 3.44411C15.9464 3.39504 15.916 3.35064 15.8777 3.31351C15.8394 3.27639 15.7941 3.2473 15.7444 3.22795C15.6947 3.2086 15.6417 3.19938 15.5884 3.20083Z" fill="#060962"/>
<path d="M0.404005 3.19839C0.389915 3.19843 0.375836 3.19921 0.361828 3.20074C0.263652 3.21136 0.172874 3.25793 0.106973 3.33149C0.0410733 3.40505 0.00471081 3.50039 0.00488756 3.59916V12.3981C0.00450471 12.4767 0.0272628 12.5536 0.0703219 12.6193C0.113381 12.685 0.174834 12.7366 0.247014 12.7676L7.84586 15.9683C7.9067 15.9938 7.9729 16.0038 8.03856 15.9976C8.10422 15.9913 8.16731 15.9688 8.22221 15.9323C8.27711 15.8957 8.32211 15.8461 8.3532 15.7879C8.38429 15.7297 8.40051 15.6647 8.40041 15.5988V6.79984C8.40038 6.72105 8.37709 6.64402 8.33346 6.57842C8.28983 6.51282 8.2278 6.46157 8.15516 6.4311L0.560215 3.23042C0.510823 3.20937 0.457697 3.19848 0.404005 3.19839Z" fill="#060962"/>
<path d="M8.00185 3.05502e-05C7.94832 -0.000631196 7.8952 0.00946374 7.84564 0.029717L0.246788 3.23039C0.173981 3.2608 0.111794 3.31208 0.0680546 3.37776C0.024315 3.44344 0.000976562 3.5206 0.000976563 3.59952C0.000976562 3.67844 0.024315 3.75559 0.0680546 3.82127C0.111794 3.88696 0.173981 3.93823 0.246788 3.96865L7.84564 7.16932C7.89461 7.18986 7.94718 7.20043 8.00029 7.20043C8.05339 7.20043 8.10596 7.18986 8.15493 7.16932L15.7538 3.96865C15.8266 3.93823 15.8888 3.88696 15.9325 3.82127C15.9763 3.75559 15.9996 3.67844 15.9996 3.59952C15.9996 3.5206 15.9763 3.44344 15.9325 3.37776C15.8888 3.31208 15.8266 3.2608 15.7538 3.23039L8.15493 0.029717C8.10635 0.00987063 8.05433 -0.000216528 8.00185 3.05502e-05Z" fill="#060962"/>
<path d="M8.00083 0.00168868C7.94709 0.00067408 7.89369 0.0105049 7.84384 0.0305938L0.245865 3.23123C0.245605 3.23149 0.245345 3.23176 0.245085 3.23203C0.163841 3.26615 0.0961395 3.32616 0.0524975 3.40272C0.00885539 3.47929 -0.00828358 3.56813 0.00374319 3.65544V12.3996C0.00351386 12.478 0.0263435 12.5548 0.0693926 12.6203C0.112442 12.6859 0.173811 12.7373 0.245866 12.7683L7.84384 15.9689C7.84669 15.97 7.84955 15.971 7.85243 15.972C7.85373 15.9726 7.85504 15.9731 7.85635 15.9736C7.86788 15.9781 7.8796 15.982 7.89149 15.9853C7.90104 15.988 7.91068 15.9904 7.92039 15.9924C7.92066 15.9924 7.92093 15.9924 7.92119 15.9924C7.93077 15.9943 7.94041 15.9958 7.95009 15.997C7.95347 15.9976 7.95686 15.9981 7.96025 15.9986C7.96207 15.9986 7.96389 15.9986 7.96571 15.9986C7.97378 15.9991 7.98185 15.9994 7.98993 15.9994C7.99669 15.9998 8.00346 16.0001 8.01023 16.0002C8.01362 16 8.01701 15.9997 8.02039 15.9994C8.03005 15.999 8.03969 15.9982 8.04929 15.997C8.0506 15.9968 8.0519 15.9965 8.05321 15.9962C8.06395 15.9949 8.07463 15.993 8.08523 15.9908C8.08654 15.9905 8.08784 15.9903 8.08915 15.99C8.09888 15.9877 8.10852 15.9851 8.11805 15.9822C8.11909 15.9819 8.12013 15.9816 8.12117 15.9814C8.13228 15.9777 8.14323 15.9735 8.15397 15.9689L8.15553 15.9681L15.7527 12.7682C15.8252 12.7376 15.8871 12.6863 15.9306 12.6207C15.974 12.5551 15.9972 12.4782 15.9972 12.3995V3.63043C16.0035 3.54663 15.9833 3.46297 15.9394 3.39131C15.8955 3.31965 15.8302 3.26364 15.7527 3.23123L12.0958 1.69067C12.071 1.677 12.0448 1.666 12.0177 1.65786L8.15391 0.0305936C8.10527 0.0110148 8.05326 0.00119343 8.00083 0.00168849V0.00168868ZM8.00083 0.833681L10.8688 2.043L4.30181 4.8085L1.43539 3.60074L8.00083 0.833681ZM11.8998 2.47735L14.5655 3.60074L7.99927 6.36623L5.33201 5.24285L11.8998 2.47735ZM0.800405 4.20305L7.59859 7.06698V14.9979L0.800405 12.1339V4.20305ZM15.1973 4.20305V12.1339L8.39916 14.9979V7.06698L10.8344 6.04125L15.1973 4.20305ZM2.04773 9.28016C2.03339 9.27991 2.01905 9.28043 2.00477 9.28172C1.91515 9.28976 1.83086 9.32779 1.76552 9.38967C1.70019 9.45155 1.65762 9.53366 1.64471 9.62273C1.63179 9.71179 1.64928 9.80262 1.69435 9.88051C1.73942 9.95841 1.80944 10.0188 1.89308 10.052L3.40127 10.6871C3.44974 10.7075 3.50174 10.7181 3.55432 10.7184C3.60689 10.7187 3.65901 10.7086 3.70768 10.6887C3.75636 10.6689 3.80064 10.6396 3.83801 10.6026C3.87537 10.5656 3.90509 10.5216 3.92545 10.4731C3.94581 10.4246 3.95643 10.3726 3.95669 10.32C3.95695 10.2674 3.94685 10.2153 3.92697 10.1666C3.90709 10.118 3.87781 10.0737 3.84081 10.0363C3.80382 9.99894 3.75982 9.96923 3.71135 9.94888L2.20316 9.31375C2.15412 9.29226 2.10126 9.28084 2.04773 9.28016V9.28016ZM2.04773 10.8801C2.03339 10.8798 2.01905 10.8804 2.00477 10.8816C1.91483 10.8893 1.83014 10.9273 1.76447 10.9892C1.6988 11.0511 1.65602 11.1335 1.64308 11.2229C1.63013 11.3122 1.64779 11.4033 1.69318 11.4814C1.73857 11.5594 1.80903 11.6198 1.89308 11.6527L3.40127 12.2871C3.44974 12.3074 3.50174 12.3181 3.55432 12.3183C3.60689 12.3186 3.65901 12.3085 3.70768 12.2887C3.75636 12.2688 3.80064 12.2395 3.83801 12.2025C3.87537 12.1655 3.90509 12.1215 3.92545 12.073C3.94581 12.0246 3.95643 11.9725 3.95669 11.92C3.95695 11.8674 3.94685 11.8152 3.92697 11.7666C3.90709 11.7179 3.87781 11.6736 3.84081 11.6362C3.80382 11.5989 3.75982 11.5692 3.71135 11.5488L2.20316 10.9145C2.15417 10.8927 2.10132 10.881 2.04773 10.8801V10.8801Z" fill="#A8A8A8"/>
</g>
<defs>
<clipPath id="clip0_31_15">
<rect width="16" height="16" fill="white"/>
</clipPath>
</defs>
</svg>
