<svg width="26" height="28" viewBox="0 0 26 28" fill="none" xmlns="http://www.w3.org/2000/svg">
<path d="M23.9055 11.9598L22.375 11.4488V5.5625C22.375 5.06522 22.1775 4.58831 21.8258 4.23667C21.4742 3.88504 20.9973 3.6875 20.5 3.6875H13.9375V1.8125C13.9375 1.56386 13.8387 1.3254 13.6629 1.14959C13.4871 0.973772 13.2486 0.875 13 0.875C12.7514 0.875 12.5129 0.973772 12.3371 1.14959C12.1613 1.3254 12.0625 1.56386 12.0625 1.8125V3.6875H5.5C5.00272 3.6875 4.52581 3.88504 4.17417 4.23667C3.82254 4.58831 3.625 5.06522 3.625 5.5625V11.4488L2.09453 11.9598C1.72118 12.0842 1.39646 12.323 1.16637 12.6423C0.936273 12.9615 0.812471 13.3451 0.8125 13.7387V16.8125C0.8125 24.0242 12.284 26.975 12.7727 27.0969C12.9219 27.1342 13.0781 27.1342 13.2273 27.0969C13.716 26.975 25.1875 24.0242 25.1875 16.8125V13.7387C25.1875 13.3451 25.0637 12.9615 24.8336 12.6423C24.6035 12.323 24.2788 12.0842 23.9055 11.9598ZM13.9375 18.6875C13.9375 18.9361 13.8387 19.1746 13.6629 19.3504C13.4871 19.5262 13.2486 19.625 13 19.625C12.7514 19.625 12.5129 19.5262 12.3371 19.3504C12.1613 19.1746 12.0625 18.9361 12.0625 18.6875V11.2895C12.0625 11.0408 12.1613 10.8024 12.3371 10.6265C12.5129 10.4507 12.7514 10.352 13 10.352C13.2486 10.352 13.4871 10.4507 13.6629 10.6265C13.8387 10.8024 13.9375 11.0408 13.9375 11.2895V18.6875ZM20.5 10.8242L13.2965 8.42305C13.104 8.35889 12.896 8.35889 12.7035 8.42305L5.5 10.8242V5.5625H20.5V10.8242Z" fill="black"/>
</svg>
