<svg width="20" height="20" viewBox="0 0 20 20" fill="none" xmlns="http://www.w3.org/2000/svg">
<path d="M17.5 18.3333H2.5C2.15833 18.3333 1.875 18.05 1.875 17.7083C1.875 17.3666 2.15833 17.0833 2.5 17.0833H17.5C17.8417 17.0833 18.125 17.3666 18.125 17.7083C18.125 18.05 17.8417 18.3333 17.5 18.3333Z" fill="white"/>
<path d="M15.85 2.89999C14.2333 1.28332 12.65 1.24166 10.9916 2.89999L9.98331 3.90832C9.89998 3.99166 9.86665 4.12499 9.89998 4.24166C10.5333 6.44999 12.3 8.21666 14.5083 8.84999C14.5416 8.85832 14.575 8.86666 14.6083 8.86666C14.7 8.86666 14.7833 8.83332 14.85 8.76666L15.85 7.75832C16.675 6.94166 17.075 6.14999 17.075 5.34999C17.0833 4.52499 16.6833 3.72499 15.85 2.89999Z" fill="white"/>
<path d="M13.0084 9.60835C12.7668 9.49169 12.5334 9.37502 12.3084 9.24169C12.1251 9.13335 11.9501 9.01669 11.7751 8.89169C11.6334 8.80002 11.4668 8.66669 11.3084 8.53335C11.2918 8.52502 11.2334 8.47502 11.1668 8.40835C10.8918 8.17502 10.5834 7.87502 10.3084 7.54169C10.2834 7.52502 10.2418 7.46669 10.1834 7.39169C10.1001 7.29169 9.95844 7.12502 9.83344 6.93335C9.73344 6.80835 9.61677 6.62502 9.50844 6.44169C9.3751 6.21669 9.25844 5.99169 9.14177 5.75835C8.9888 5.43057 8.55859 5.3332 8.30282 5.58897L3.61677 10.275C3.50844 10.3834 3.40844 10.5917 3.38344 10.7334L2.93344 13.925C2.8501 14.4917 3.00844 15.025 3.35844 15.3834C3.65844 15.675 4.0751 15.8334 4.5251 15.8334C4.6251 15.8334 4.7251 15.825 4.8251 15.8084L8.0251 15.3584C8.1751 15.3334 8.38344 15.2334 8.48344 15.125L13.1772 10.4312C13.4279 10.1806 13.3337 9.7493 13.0084 9.60835Z" fill="white"/>
</svg>
