<svg width="26" height="20" viewBox="0 0 26 20" fill="none" xmlns="http://www.w3.org/2000/svg">
<path d="M16.75 0C17.413 0 18.0489 0.263392 18.5178 0.732233C18.9866 1.20107 19.25 1.83696 19.25 2.5V3.75H21.15C21.5247 3.75005 21.8946 3.83432 22.2324 3.9966C22.5701 4.15887 22.8671 4.39499 23.1012 4.6875L24.9513 7.00125C25.3064 7.44461 25.4999 7.9957 25.5 8.56375V13.75C25.5 14.413 25.2366 15.0489 24.7678 15.5178C24.2989 15.9866 23.663 16.25 23 16.25H21.75C21.75 17.2446 21.3549 18.1984 20.6517 18.9017C19.9484 19.6049 18.9946 20 18 20C17.0054 20 16.0516 19.6049 15.3483 18.9017C14.6451 18.1984 14.25 17.2446 14.25 16.25H10.5C10.5 16.7425 10.403 17.2301 10.2145 17.6851C10.0261 18.14 9.74987 18.5534 9.40165 18.9017C9.05343 19.2499 8.64003 19.5261 8.18506 19.7145C7.73009 19.903 7.24246 20 6.75 20C6.25754 20 5.76991 19.903 5.31494 19.7145C4.85997 19.5261 4.44657 19.2499 4.09835 18.9017C3.75013 18.5534 3.47391 18.14 3.28545 17.6851C3.097 17.2301 3 16.7425 3 16.25C2.33696 16.25 1.70107 15.9866 1.23223 15.5178C0.763392 15.0489 0.5 14.413 0.5 13.75V2.5C0.5 1.83696 0.763392 1.20107 1.23223 0.732233C1.70107 0.263392 2.33696 0 3 0H16.75ZM6.75 15C6.41848 15 6.10054 15.1317 5.86612 15.3661C5.6317 15.6005 5.5 15.9185 5.5 16.25C5.5 16.5815 5.6317 16.8995 5.86612 17.1339C6.10054 17.3683 6.41848 17.5 6.75 17.5C7.08152 17.5 7.39946 17.3683 7.63388 17.1339C7.8683 16.8995 8 16.5815 8 16.25C8 15.9185 7.8683 15.6005 7.63388 15.3661C7.39946 15.1317 7.08152 15 6.75 15ZM18 15C17.6685 15 17.3505 15.1317 17.1161 15.3661C16.8817 15.6005 16.75 15.9185 16.75 16.25C16.75 16.5815 16.8817 16.8995 17.1161 17.1339C17.3505 17.3683 17.6685 17.5 18 17.5C18.3315 17.5 18.6495 17.3683 18.8839 17.1339C19.1183 16.8995 19.25 16.5815 19.25 16.25C19.25 15.9185 19.1183 15.6005 18.8839 15.3661C18.6495 15.1317 18.3315 15 18 15ZM21.15 6.25H19.25V11.25H23V8.5625L21.15 6.25Z" fill="black"/>
</svg>
