<svg width="20" height="20" viewBox="0 0 20 20" fill="none" xmlns="http://www.w3.org/2000/svg">
<path d="M10.625 13.2667H11.1667C11.7083 13.2667 12.1583 12.7833 12.1583 12.2C12.1583 11.475 11.9 11.3333 11.475 11.1833L10.6333 10.8917V13.2667H10.625Z" fill="white"/>
<path d="M9.97489 1.58333C5.37489 1.59999 1.64989 5.34166 1.66656 9.94166C1.68323 14.5417 5.42489 18.2667 10.0249 18.25C14.6249 18.2333 18.3499 14.4917 18.3332 9.89166C18.3166 5.29166 14.5749 1.57499 9.97489 1.58333ZM11.8832 9.99999C12.5332 10.225 13.4082 10.7083 13.4082 12.2C13.4082 13.4833 12.3999 14.5167 11.1666 14.5167H10.6249V15C10.6249 15.3417 10.3416 15.625 9.99989 15.625C9.65823 15.625 9.37489 15.3417 9.37489 15V14.5167H9.07489C7.70823 14.5167 6.59989 13.3667 6.59989 11.95C6.59989 11.6083 6.88323 11.325 7.22489 11.325C7.56656 11.325 7.84989 11.6083 7.84989 11.95C7.84989 12.675 8.39989 13.2667 9.07489 13.2667H9.37489V10.45L8.11656 9.99999C7.46656 9.77499 6.59156 9.29166 6.59156 7.79999C6.59156 6.51666 7.59989 5.48333 8.83323 5.48333H9.37489V4.99999C9.37489 4.65833 9.65823 4.37499 9.99989 4.37499C10.3416 4.37499 10.6249 4.65833 10.6249 4.99999V5.48333H10.9249C12.2916 5.48333 13.3999 6.63333 13.3999 8.04999C13.3999 8.39166 13.1166 8.67499 12.7749 8.67499C12.4332 8.67499 12.1499 8.39166 12.1499 8.04999C12.1499 7.32499 11.5999 6.73333 10.9249 6.73333H10.6249V9.54999L11.8832 9.99999Z" fill="white"/>
<path d="M7.8501 7.80834C7.8501 8.53334 8.10843 8.675 8.53343 8.825L9.3751 9.11667V6.73334H8.83343C8.29176 6.73334 7.8501 7.21667 7.8501 7.80834Z" fill="white"/>
</svg>
