<svg width="26" height="23" viewBox="0 0 26 23" fill="none" xmlns="http://www.w3.org/2000/svg">
<path fill-rule="evenodd" clip-rule="evenodd" d="M4.25 4.8125C3.33832 4.8125 2.46398 5.17466 1.81932 5.81932C1.17466 6.46398 0.8125 7.33832 0.8125 8.25V19.5C0.8125 20.4117 1.17466 21.286 1.81932 21.9307C2.46398 22.5753 3.33832 22.9375 4.25 22.9375H21.75C22.6617 22.9375 23.536 22.5753 24.1807 21.9307C24.8253 21.286 25.1875 20.4117 25.1875 19.5V8.25C25.1875 7.33832 24.8253 6.46398 24.1807 5.81932C23.536 5.17466 22.6617 4.8125 21.75 4.8125H4.25ZM18.625 12.3125C18.2106 12.3125 17.8132 12.4771 17.5201 12.7701C17.2271 13.0632 17.0625 13.4606 17.0625 13.875C17.0625 14.2894 17.2271 14.6868 17.5201 14.9799C17.8132 15.2729 18.2106 15.4375 18.625 15.4375C19.0394 15.4375 19.4368 15.2729 19.7299 14.9799C20.0229 14.6868 20.1875 14.2894 20.1875 13.875C20.1875 13.4606 20.0229 13.0632 19.7299 12.7701C19.4368 12.4771 19.0394 12.3125 18.625 12.3125Z" fill="black"/>
<path d="M18.6063 0.836258C18.9764 0.737631 19.3642 0.725361 19.7398 0.800395C20.1154 0.87543 20.4687 1.03576 20.7725 1.26902C21.0763 1.50227 21.3224 1.80221 21.4919 2.14569C21.6614 2.48916 21.7497 2.86699 21.75 3.25001H9.25L18.6063 0.836258Z" fill="black"/>
</svg>
